<?xml version="1.0" standalone="no"?>
<!DOCTYPE svg PUBLIC "-//W3C//DTD SVG 20010904//EN"
 "http://www.w3.org/TR/2001/REC-SVG-20010904/DTD/svg10.dtd">
<svg version="1.0" xmlns="http://www.w3.org/2000/svg"
 width="258.000000pt" height="258.000000pt" viewBox="0 0 258.000000 258.000000"
 preserveAspectRatio="xMidYMid meet">
<metadata>
Created by potrace 1.14, written by Peter Selinger 2001-2017
</metadata>
<g transform="translate(0.000000,258.000000) scale(0.100000,-0.100000)"
fill="#000000" stroke="none">
<path d="M0 1598 c0 -143 2 -168 15 -168 8 0 15 -6 15 -14 0 -10 9 -14 27 -12
27 3 28 5 28 70 0 74 -8 69 93 67 51 0 52 0 52 30 0 18 -4 28 -10 24 -5 -3
-10 1 -10 9 0 16 -10 18 -82 18 -22 0 -38 5 -39 11 0 7 -2 20 -4 30 -4 19 4
20 98 18 54 -2 57 0 57 22 0 45 -27 57 -138 60 l-102 2 0 -167z"/>
<path d="M279 1759 c-6 -4 -10 -70 -10 -163 1 -126 4 -161 16 -173 8 -8 15
-16 15 -17 0 -1 -24 -2 -53 -3 -120 -1 -208 -87 -193 -188 12 -78 70 -129 193
-169 58 -19 72 -35 65 -72 -11 -57 -107 -75 -170 -30 l-37 26 -35 -36 -35 -35
42 -38 c62 -56 150 -74 237 -50 100 28 145 105 123 211 -10 48 -80 111 -150
134 -87 28 -107 42 -103 67 3 12 5 25 5 29 2 13 59 38 88 38 15 0 43 -9 62
-21 l34 -21 34 36 c34 36 34 36 14 57 -11 12 -41 32 -68 45 -26 14 -41 24 -33
23 34 -3 37 2 35 66 -1 43 3 66 11 69 15 6 25 -6 52 -59 31 -61 83 -98 114
-79 8 5 -16 53 -60 121 -13 21 -12 23 11 32 41 16 64 76 45 116 -19 38 -62 75
-92 80 -47 8 -146 11 -157 4z m163 -87 c16 -16 -27 -51 -59 -49 -29 3 -39 29
-20 54 9 13 65 9 79 -5z"/>
<path d="M645 1756 c-86 -38 -125 -159 -80 -246 24 -46 82 -92 132 -106 46
-12 41 -13 -92 -13 l-141 -1 -1 -41 c-1 -27 3 -42 13 -46 7 -3 14 -11 14 -18
0 -9 19 -12 70 -10 65 2 70 1 71 -19 0 -11 1 -110 2 -218 0 -150 3 -198 13
-198 6 0 14 -7 17 -15 4 -10 19 -14 49 -12 l43 2 5 230 5 230 73 1 c39 1 77 2
83 3 6 0 9 19 7 44 -2 27 -7 41 -15 39 -7 -1 -13 5 -13 13 0 12 -16 15 -77 16
-64 1 -71 3 -40 9 171 33 188 265 27 348 -50 25 -119 29 -165 8z m142 -72 c27
-7 52 -58 47 -97 -7 -55 -36 -91 -84 -103 -93 -23 -140 46 -100 146 19 47 78
70 137 54z"/>
<path d="M974 1762 c-21 -3 -22 -7 -21 -168 0 -124 3 -164 13 -164 7 0 14 -6
16 -12 3 -7 17 -13 31 -13 l27 -1 0 120 0 120 48 -76 c53 -84 100 -149 116
-160 6 -4 -1 -8 -15 -8 -90 0 -202 -85 -233 -176 -37 -108 -13 -232 61 -314
66 -73 129 -103 223 -106 104 -3 162 18 227 81 40 39 55 62 68 108 33 116 8
229 -70 312 -42 43 -132 95 -167 95 -16 0 -18 14 -18 163 0 146 -2 166 -18
180 -10 10 -30 17 -44 17 l-25 0 1 -109 c1 -60 -3 -107 -8 -104 -4 3 -33 44
-63 92 -76 117 -94 132 -149 123z m376 -497 c64 -33 90 -156 51 -241 -62 -135
-262 -146 -316 -17 -44 104 11 243 108 272 43 13 117 7 157 -14z"/>
<path d="M1323 1762 c-27 -3 -33 -7 -33 -28 0 -14 6 -24 14 -24 8 0 16 -7 20
-15 3 -9 18 -15 38 -15 l33 0 -1 -125 c0 -97 3 -125 13 -125 7 0 13 -6 13 -13
0 -7 13 -12 30 -12 l30 -1 0 138 c0 154 -5 143 73 138 23 -1 27 2 27 25 0 14
-7 28 -15 31 -8 4 -12 10 -9 15 3 5 2 9 -3 10 -34 2 -204 3 -230 1z"/>
<path d="M1638 1762 c-21 -2 -39 -9 -39 -15 -1 -7 -2 -79 -3 -161 -1 -111 2
-150 11 -153 7 -3 13 -10 13 -17 0 -7 36 -11 115 -11 113 -1 115 0 115 22 0
39 -29 58 -85 57 -74 -1 -85 4 -85 37 l0 28 77 3 c65 3 77 6 79 21 1 10 -4 21
-12 24 -8 3 -14 11 -14 19 0 10 -15 13 -52 13 -78 -1 -78 -1 -78 26 0 27 -2
27 107 27 54 0 66 9 52 43 -4 11 -8 16 -8 11 -1 -6 -7 -2 -14 8 -14 19 -84 26
-179 18z"/>
<path d="M2269 1762 c-13 -2 -15 -26 -15 -167 0 -120 4 -165 12 -165 7 0 14
-6 17 -13 7 -17 147 -15 192 2 120 48 141 186 44 282 -31 32 -58 50 -80 53
-43 7 -149 12 -170 8z m207 -107 c18 -25 18 -79 -1 -114 -15 -29 -48 -47 -102
-55 l-33 -4 0 100 0 100 61 -4 c45 -3 65 -10 75 -23z"/>
<path d="M1880 1595 c0 -140 2 -165 15 -165 8 0 15 -6 15 -13 0 -9 10 -13 28
-12 l27 1 3 104 c1 58 3 109 5 114 2 5 28 -32 59 -81 76 -120 95 -138 138
-138 l35 0 1 168 c1 134 -2 167 -13 167 -7 0 -13 5 -13 10 0 6 -13 10 -30 10
l-30 0 0 -112 0 -113 -67 100 c-37 55 -72 106 -79 113 -7 6 -31 12 -53 12
l-41 0 0 -165z"/>
<path d="M1619 1383 c-1 -9 -1 -523 0 -535 1 -5 8 -8 16 -8 8 0 14 -6 13 -12
-2 -9 12 -13 45 -14 36 0 47 3 48 15 1 9 1 60 2 113 0 95 0 97 26 103 30 8 33
3 99 -117 59 -108 67 -115 135 -115 32 0 57 2 57 3 0 2 -32 56 -70 120 -39 64
-70 117 -68 118 2 2 17 8 35 15 64 26 96 92 81 169 -10 57 -64 116 -123 137
-43 14 -294 21 -296 8z m274 -115 c20 -10 23 -56 5 -81 -14 -18 -86 -34 -129
-29 -24 3 -25 6 -24 55 1 29 3 56 3 60 3 11 122 7 145 -5z"/>
<path d="M2110 1120 c0 -248 1 -271 18 -288 17 -17 37 -18 203 -18 l184 1 1
43 c1 29 -3 42 -12 42 -8 0 -14 7 -14 15 0 12 -23 15 -127 17 l-128 3 0 55 0
55 128 3 127 3 0 44 c0 33 -4 45 -15 45 -8 0 -15 7 -15 15 0 12 -18 14 -97 14
-54 -1 -105 -1 -113 0 -11 1 -15 13 -15 45 0 25 4 48 8 53 5 4 63 8 130 9 146
2 136 0 132 22 -2 9 -4 30 -4 45 -1 16 -5 26 -11 22 -5 -3 -10 1 -10 9 0 14
-24 16 -185 16 l-185 0 0 -270z"/>
</g>
</svg>
